<?xml version="1.0" standalone="no"?>
<!DOCTYPE svg PUBLIC "-//W3C//DTD SVG 20010904//EN"
 "http://www.w3.org/TR/2001/REC-SVG-20010904/DTD/svg10.dtd">
<svg version="1.0" xmlns="http://www.w3.org/2000/svg"
 width="512.000000pt" height="512.000000pt" viewBox="0 0 512.000000 512.000000"
 preserveAspectRatio="xMidYMid meet">
<metadata>
Created by potrace 1.14, written by Peter Selinger 2001-2017
</metadata>
<g transform="translate(0.000000,512.000000) scale(0.100000,-0.100000)"
fill="#000000" stroke="none">
<path d="M900 4930 c-105 -38 -175 -83 -255 -164 -130 -133 -188 -275 -189
-461 0 -289 169 -530 441 -628 208 -75 439 -40 618 93 132 99 130 125 -10 134
-49 3 -112 11 -140 19 -293 82 -491 349 -488 658 1 87 34 212 75 287 21 38 23
68 6 74 -7 3 -33 -3 -58 -12z"/>
<path d="M3604 4857 c-31 -22 -67 -36 -98 -40 -55 -8 -86 -30 -86 -60 0 -11
15 -43 34 -71 24 -35 36 -66 39 -98 2 -26 10 -54 17 -63 20 -24 66 -18 112 15
26 18 64 34 95 39 29 4 59 14 68 21 24 20 18 64 -15 105 -16 21 -30 38 -30 39
0 0 -4 27 -10 60 -15 93 -48 106 -126 53z"/>
<path d="M1988 4723 c-9 -10 -19 -42 -22 -71 -3 -37 -15 -68 -36 -99 -52 -79
-36 -112 59 -124 42 -5 72 -15 95 -33 68 -51 124 -33 128 42 0 20 2 42 2 49 1
6 14 30 29 53 37 57 42 82 20 108 -17 20 -47 29 -105 31 -14 1 -40 13 -57 27
-41 34 -91 42 -113 17z"/>
<path d="M2894 4100 c-12 -5 -25 -13 -29 -19 -10 -18 -60 -40 -99 -45 -58 -7
-74 -15 -84 -44 -8 -23 -4 -36 29 -87 27 -40 39 -70 39 -95 0 -19 7 -45 15
-57 24 -35 51 -34 105 3 50 34 72 42 123 43 32 1 67 33 67 61 0 11 -15 41 -34
67 -24 34 -36 63 -40 98 -3 35 -12 55 -27 68 -23 19 -34 20 -65 7z"/>
<path d="M3940 3947 c-12 -7 -44 -43 -70 -82 -272 -397 -362 -530 -374 -553
-20 -38 -8 -90 26 -115 19 -14 44 -21 80 -21 29 -1 52 -4 51 -9 -3 -8 -73
-113 -162 -242 -183 -265 -301 -447 -301 -464 0 -11 5 -31 11 -44 20 -43 46
-51 174 -54 66 -1 130 -2 143 -2 22 -1 17 -10 -51 -108 -40 -60 -117 -171
-169 -248 l-95 -140 203 -330 204 -329 37 -4 c60 -5 60 -6 58 -69 -1 -32 2
-69 7 -83 5 -14 87 -151 183 -305 108 -174 181 -304 195 -344 19 -57 28 -165
18 -211 -5 -23 96 -19 122 5 19 17 19 33 20 508 0 270 2 493 5 495 2 2 181 4
397 4 306 0 399 3 419 14 54 27 61 105 15 162 -12 15 -44 61 -71 102 -27 41
-52 77 -55 80 -3 3 -39 55 -79 115 -41 61 -162 238 -269 393 -106 156 -191
286 -188 289 3 3 67 6 142 6 134 1 136 1 165 28 21 20 29 36 29 62 0 37 3 33
-331 521 -71 105 -129 192 -129 195 0 4 25 7 56 7 46 1 60 6 85 30 46 44 40
77 -34 186 -217 321 -359 527 -375 541 -24 21 -65 28 -92 14z"/>
<path d="M1854 3254 c-23 -11 -68 -77 -189 -272 -87 -141 -173 -279 -191 -307
-17 -27 -168 -270 -334 -540 -167 -269 -317 -512 -335 -540 -33 -51 -174 -280
-210 -339 -11 -19 -64 -105 -118 -192 -55 -88 -113 -181 -130 -209 -17 -27
-100 -161 -184 -297 -84 -136 -156 -260 -159 -277 -7 -35 20 -87 51 -98 23 -8
1112 -11 1124 -3 11 7 40 63 122 235 216 452 417 865 421 865 2 0 2 -242 2
-537 -1 -296 0 -545 2 -553 3 -13 27 -15 156 -14 84 1 158 2 164 3 9 1 12 145
12 546 -1 300 1 548 4 550 3 3 21 -30 41 -72 19 -43 82 -172 138 -288 152
-314 235 -487 296 -615 30 -63 58 -117 63 -120 14 -8 1082 -5 1118 4 35 8 62
47 62 88 0 19 -130 238 -329 558 -78 124 -281 451 -296 476 -11 19 -87 142
-170 275 -82 133 -159 257 -170 275 -34 56 -176 287 -200 324 -13 19 -148 238
-300 485 -152 248 -295 478 -318 513 -53 84 -88 102 -143 76z"/>
</g>
</svg>
